<?xml version="1.0" standalone="no"?>
<!DOCTYPE svg PUBLIC "-//W3C//DTD SVG 20010904//EN"
 "http://www.w3.org/TR/2001/REC-SVG-20010904/DTD/svg10.dtd">
<svg version="1.0" xmlns="http://www.w3.org/2000/svg"
 width="700.000000pt" height="700.000000pt" viewBox="0 0 700.000000 700.000000"
 preserveAspectRatio="xMidYMid meet">
<metadata>
Created by potrace 1.14, written by Peter Selinger 2001-2017
</metadata>
<g transform="translate(0.000000,700.000000) scale(0.100000,-0.100000)"
fill="#000000" stroke="none">
<path d="M2862 6118 c-62 -10 -116 -42 -165 -99 -64 -73 -71 -108 -71 -339 0
-217 6 -249 69 -325 35 -44 112 -91 160 -99 17 -2 103 -5 193 -5 l162 -1 0
-145 c0 -144 0 -145 -22 -145 -13 -1 -95 -2 -183 -3 -135 -2 -166 -5 -200 -22
-59 -28 -100 -61 -127 -103 -51 -77 -52 -85 -53 -577 l0 -460 -438 -3 -437 -2
0 459 c0 517 -1 525 -73 607 -22 25 -63 57 -91 72 l-51 27 -365 0 -365 0 -58
-29 c-64 -31 -126 -99 -149 -163 -11 -31 -13 -293 -13 -1413 l0 -1375 28 -57
c34 -69 91 -121 165 -148 53 -20 73 -21 406 -18 341 3 352 4 397 26 79 39 149
125 163 202 2 14 5 296 5 627 l1 602 437 -2 438 -2 0 -470 1 -470 28 -53 c33
-66 87 -119 146 -146 39 -18 68 -21 205 -23 88 -1 170 -2 183 -3 22 0 22 0 22
-184 l0 -183 -39 -26 c-52 -34 -137 -120 -156 -157 -18 -34 12 -32 -342 -31
l-192 1 -3 -208 c-2 -114 -1 -245 2 -292 l5 -85 250 -1 c138 -1 253 -2 257 -3
4 -1 18 -18 31 -38 35 -55 108 -123 180 -166 181 -110 415 -109 602 4 60 36
138 110 179 169 l23 35 254 0 254 0 3 293 2 292 -147 -1 c-82 0 -198 0 -259 0
l-111 1 -28 42 c-34 51 -94 111 -147 146 l-38 25 0 183 0 184 43 0 c240 2 325
7 357 22 73 33 117 75 151 144 l34 68 0 465 0 466 437 2 437 3 3 -623 3 -622
23 -46 c29 -59 79 -109 139 -140 l48 -24 370 0 c365 0 371 0 412 23 66 35 110
79 140 140 l28 57 0 1380 0 1380 -23 48 c-30 64 -100 131 -159 154 -44 16 -82
18 -408 18 l-360 0 -51 -27 c-29 -15 -70 -49 -93 -75 -70 -82 -71 -88 -71
-605 l0 -458 -435 0 c-239 0 -436 3 -436 8 -1 4 -2 214 -3 467 l-2 460 -26 57
c-31 67 -86 124 -148 152 -45 20 -68 22 -372 26 l-38 0 0 145 0 145 170 0
c206 0 256 14 331 91 73 75 83 116 83 344 0 131 -4 205 -13 238 -19 66 -94
147 -163 178 l-53 23 -621 0 c-342 1 -639 -2 -662 -6z m-1405 -1578 c1 -69 0
-134 -2 -145 -4 -20 -11 -20 -287 -19 -156 1 -285 2 -288 3 -4 1 -5 284 -1
287 0 0 130 0 289 0 l287 -1 2 -125z m4668 -20 l0 -145 -292 0 -291 0 -1 145
-1 146 293 -1 292 0 0 -145z m-4667 -582 l-1 -148 -288 0 c-185 0 -289 4 -290
10 -1 6 -2 70 -3 143 -1 96 2 133 11 137 7 3 138 5 292 5 l281 0 -2 -147z
m4658 140 c5 -4 9 -62 9 -145 l0 -138 -291 -2 -291 -2 -2 141 c-1 80 2 144 8
147 12 8 554 7 567 -1z m-4657 -723 l1 -145 -292 2 -293 3 -1 135 c0 74 1 138
3 143 2 4 134 7 293 7 l288 0 1 -145z m4666 3 l0 -143 -292 -3 -292 -2 0 145
0 145 292 0 292 0 0 -142z m-4668 -585 c0 -79 -2 -144 -5 -144 -23 -4 -565 -3
-571 1 -3 3 -7 68 -6 146 l0 140 290 0 290 -1 2 -142z m4664 138 c3 -15 5
-267 2 -276 -2 -7 -101 -10 -291 -10 l-287 1 -2 145 -2 145 289 0 c160 0 291
-2 291 -5z m-4679 -580 c15 -1 17 -17 16 -144 l0 -144 -292 0 -291 -1 0 142
c-1 77 2 143 6 146 6 4 483 5 561 1z m4675 -5 c4 -4 8 -69 8 -145 l0 -138
-292 0 -293 0 1 143 c1 138 2 143 23 146 44 6 547 1 553 -6z"/>
</g>
</svg>
